<svg id="Layer_1" data-name="Layer 1" xmlns="http://www.w3.org/2000/svg" viewBox="0 0 325.86 65">
  <title>logo_full_charcoal_red</title>
  <g>
    <g>
      <path d="M44.22,6.91H19.64a4.5,4.5,0,0,0-4.3,4.66V53.43a4.49,4.49,0,0,0,4.3,4.65H49.79a4.49,4.49,0,0,0,4.31-4.65V17.58L44.22,6.92ZM19.64,53.43V11.57H41.18v9.3h8.61V53.43Z" transform="translate(0)" style="fill: #212932"/>
      <path d="M6,32.53A9.24,9.24,0,0,1,7.93,34a7.1,7.1,0,0,1,1.48,2.11,11.82,11.82,0,0,1,.91,3,26.11,26.11,0,0,1,.3,4.26v7.18c0,2.1.05,3.86.13,5.26a8.33,8.33,0,0,0,.84,3.42,3.91,3.91,0,0,0,2.19,1.85,12.92,12.92,0,0,0,4.23.54V65h-.53a16.82,16.82,0,0,1-5.38-.74,7.79,7.79,0,0,1-3.4-2.14A8.09,8.09,0,0,1,7,58.59a20.4,20.4,0,0,1-.51-4.79v-13a7.83,7.83,0,0,0-.37-2.38,6,6,0,0,0-1.17-2.11,6.35,6.35,0,0,0-2-1.54A6.45,6.45,0,0,0,0,34.14V30.86a6.32,6.32,0,0,0,2.89-.61,6.35,6.35,0,0,0,2-1.54A6,6,0,0,0,6.08,26.6a7.83,7.83,0,0,0,.37-2.38v-13A20.45,20.45,0,0,1,7,6.37,8.1,8.1,0,0,1,8.7,2.88,7.74,7.74,0,0,1,12.1.74,16.82,16.82,0,0,1,17.48,0H18V3.35a12.92,12.92,0,0,0-4.23.54,3.91,3.91,0,0,0-2.19,1.85,8.33,8.33,0,0,0-.84,3.42c-.09,1.41-.13,3.16-.13,5.26V21.6a26.59,26.59,0,0,1-.3,4.29A11.78,11.78,0,0,1,9.41,29a7.1,7.1,0,0,1-1.48,2.11A9.19,9.19,0,0,1,6,32.53Zm57.51,0a9.5,9.5,0,0,0-2,1.45,7.1,7.1,0,0,0-1.48,2.11,12.22,12.22,0,0,0-.91,3,26.11,26.11,0,0,0-.3,4.26v7.18c0,2.1,0,3.86-.13,5.26a8.33,8.33,0,0,1-.84,3.42,3.87,3.87,0,0,1-2.19,1.85,12.88,12.88,0,0,1-4.23.54V65H52a16.76,16.76,0,0,0,5.37-.74,7.74,7.74,0,0,0,3.4-2.14,8.1,8.1,0,0,0,1.75-3.53A21,21,0,0,0,63,53.8v-13a7.83,7.83,0,0,1,.37-2.38,5.88,5.88,0,0,1,1.18-2.11,6.31,6.31,0,0,1,2-1.54,6.45,6.45,0,0,1,2.89-.61V30.86a6.21,6.21,0,0,1-4.9-2.15,5.88,5.88,0,0,1-1.18-2.11A7.73,7.73,0,0,1,63,24.22v-13a21,21,0,0,0-.5-4.83,8.11,8.11,0,0,0-1.75-3.49A7.74,7.74,0,0,0,57.37.74,16.76,16.76,0,0,0,52,0h-.54V3.35a12.84,12.84,0,0,1,4.23.54,3.87,3.87,0,0,1,2.19,1.85,8.33,8.33,0,0,1,.84,3.42c.09,1.41.13,3.16.13,5.26V21.6a26.59,26.59,0,0,0,.3,4.29A12.18,12.18,0,0,0,60.06,29a7.29,7.29,0,0,0,1.48,2.11,9.45,9.45,0,0,0,2,1.44Z" transform="translate(0)" style="fill: #212932"/>
    </g>
    <g>
      <ellipse cx="39.8" cy="46.55" rx="16.97" ry="16.94" style="fill: #d03f40"/>
      <path d="M36.92,35.55h6.55V40.6L42.2,50.76H38.15L36.92,40.6V35.55Zm.23,16.76h6.11v5.43H37.15Z" transform="translate(0)" style="fill: #fff"/>
    </g>
    <path d="M113.69,13.53v7.55H101.81V52.89H93V21.08H81.07V13.53Zm17.22-.46q8.86,0,13.58,3.16T149.21,26a11.1,11.1,0,0,1-1.91,6.74,12.63,12.63,0,0,1-5.48,4.06c.87,1.09,1.71,2.22,2.5,3.38s1.75,2.63,2.58,4,1.7,2.86,2.48,4.32,1.51,2.92,2.21,4.4h-9.94L139.46,49c-.73-1.3-1.48-2.59-2.27-3.86s-1.51-2.38-2.31-3.55a36.93,36.93,0,0,0-2.27-3h-4.37V52.89h-8.87V14.1a50.27,50.27,0,0,1,6-.8c1.84-.14,3.69-.22,5.54-.23Zm.51,7.56c-.65,0-1.22,0-1.73.05l-1.45.12V31.48h2.5q5,0,7.16-1.25A4.51,4.51,0,0,0,140.06,26a4.33,4.33,0,0,0-2.19-4.12A13.59,13.59,0,0,0,131.42,20.63Zm54,32.26c-.43-1.41-.89-2.81-1.39-4.2s-1-2.88-1.5-4.32H167.16q-.74,2.16-1.5,4.32c-.5,1.39-1,2.79-1.39,4.2h-9.21q2.06-5.89,4.2-11.76c1.26-3.4,2.55-6.79,3.9-10.16q1.91-4.77,3.75-9.06t3.83-8.38h8.47q4.06,8.6,7.59,17.44,1.9,4.77,3.89,10.16,2.16,5.86,4.21,11.76h-9.5ZM174.78,22.45c-.19.56-.48,1.34-.85,2.33-1,2.55-2,5.1-2.93,7.66-.61,1.63-1.21,3.25-1.79,4.89H180.4c-.58-1.63-1.16-3.26-1.76-4.89q-.78-2.13-1.62-4.26c-.45-1.13-.89-2.27-1.33-3.4C175.39,24,175.09,23.22,174.78,22.45Zm41.77,31.24q-9.62,0-14.64-5.34t-5-15.17a23.38,23.38,0,0,1,1.54-8.72,18.77,18.77,0,0,1,4.2-6.47A17.66,17.66,0,0,1,209,14a22.91,22.91,0,0,1,8-1.36,25.4,25.4,0,0,1,4.55.37,29.21,29.21,0,0,1,3.58.85,17.5,17.5,0,0,1,2.55,1c.69.34,1.18.61,1.48.8l-2.56,7.16a20.73,20.73,0,0,0-4.23-1.65,20,20,0,0,0-5.48-.68,12,12,0,0,0-4,.68,9,9,0,0,0-3.47,2.19A11,11,0,0,0,207,27.22a16.22,16.22,0,0,0-.91,5.79,20.51,20.51,0,0,0,.6,5.08,10.82,10.82,0,0,0,1.93,4.07,9.27,9.27,0,0,0,3.49,2.69,12.36,12.36,0,0,0,5.23,1,24,24,0,0,0,3.47-.23,25.33,25.33,0,0,0,2.73-.54,14.41,14.41,0,0,0,2.1-.71l1.65-.74,2.44,7.1a20.81,20.81,0,0,1-5.28,2.05,31.14,31.14,0,0,1-7.9.91Zm42.11-.8c-.89-1.42-1.83-2.82-2.82-4.17-1.11-1.54-2.29-3-3.52-4.49s-2.58-2.93-3.95-4.32a41.74,41.74,0,0,0-4.09-3.66V52.89h-8.87V13.53h8.87V28.41c2.36-2.48,4.69-5,7-7.58s4.5-5.07,6.51-7.3h10.51q-4,4.68-8.1,9.2c-2.78,3-5.64,6-8.55,8.92A68.41,68.41,0,0,1,260.73,41a111.76,111.76,0,0,1,8.44,11.93Z" transform="translate(0)" style="fill: #212932"/>
    <path d="M292.15,38.29a21.57,21.57,0,0,1-.85,6.25,12.86,12.86,0,0,1-2.55,4.74,10.94,10.94,0,0,1-4.22,3,15,15,0,0,1-5.88,1.06,24.82,24.82,0,0,1-3-.19,27.28,27.28,0,0,1-3.1-.58l.4-4.55a1.48,1.48,0,0,1,.47-1,1.69,1.69,0,0,1,1.21-.39,5.52,5.52,0,0,1,1.26.2,8.33,8.33,0,0,0,2,.2,8,8,0,0,0,2.87-.47,4.83,4.83,0,0,0,2.08-1.49,7,7,0,0,0,1.27-2.65,16.11,16.11,0,0,0,.43-4V11.82h7.64V38.29Zm30.31-19a2,2,0,0,1-.72.88,1.81,1.81,0,0,1-1,.26,2.51,2.51,0,0,1-1.28-.44c-.55-.34-1.11-.67-1.68-1a14.05,14.05,0,0,0-2.25-1,9.64,9.64,0,0,0-3.06-.44,9.18,9.18,0,0,0-2.77.38,5.92,5.92,0,0,0-2,1.07,4.2,4.2,0,0,0-1.2,1.63,5.15,5.15,0,0,0-.4,2.09,3.62,3.62,0,0,0,.81,2.41,6.6,6.6,0,0,0,2.14,1.65,20.68,20.68,0,0,0,3,1.22c1.14.36,2.3.74,3.48,1.15a33,33,0,0,1,3.48,1.42,11.86,11.86,0,0,1,3,2,9.26,9.26,0,0,1,2.15,3,10.49,10.49,0,0,1,.81,4.35,14.26,14.26,0,0,1-.95,5.21,12.09,12.09,0,0,1-2.79,4.23,13.11,13.11,0,0,1-4.47,2.84,16.5,16.5,0,0,1-6.05,1A19.25,19.25,0,0,1,307,53a20.16,20.16,0,0,1-3.65-1.09A18.5,18.5,0,0,1,300,50.16,16,16,0,0,1,297.32,48l2.22-3.66a2.55,2.55,0,0,1,.75-.67,1.83,1.83,0,0,1,1-.27,2.69,2.69,0,0,1,1.53.58q.82.59,1.95,1.29a14.76,14.76,0,0,0,2.64,1.3,10.43,10.43,0,0,0,3.65.58,7.5,7.5,0,0,0,5.06-1.55,5.56,5.56,0,0,0,1.79-4.44,4.17,4.17,0,0,0-.81-2.65,6.47,6.47,0,0,0-2.14-1.71,15.66,15.66,0,0,0-3-1.18c-1.17-.33-2.32-.68-3.47-1A31.25,31.25,0,0,1,305,33.15a11.29,11.29,0,0,1-3-2.07,9.47,9.47,0,0,1-2.14-3.19,12.2,12.2,0,0,1-.81-4.73A11.26,11.26,0,0,1,302.48,15a13.07,13.07,0,0,1,4.22-2.64,15.39,15.39,0,0,1,5.71-1,19.08,19.08,0,0,1,6.7,1.14,14.9,14.9,0,0,1,5.23,3.18Z" transform="translate(0)" style="fill: #d03f40"/>
  </g>
  <path d="M325.86,59.87a5.48,5.48,0,0,1-.39,2.14,4.6,4.6,0,0,1-2.59,2.58,5.12,5.12,0,0,1-3.67,0,4.58,4.58,0,0,1-1.53-1A4.71,4.71,0,0,1,316.62,62a5.9,5.9,0,0,1,0-4.27,4.71,4.71,0,0,1,1.06-1.59,4.58,4.58,0,0,1,1.53-1,5.12,5.12,0,0,1,3.67,0,4.6,4.6,0,0,1,2.59,2.58A5.54,5.54,0,0,1,325.86,59.87Zm-1.22,0a4.79,4.79,0,0,0-.26-1.6,3.63,3.63,0,0,0-.75-1.23,3.27,3.27,0,0,0-1.14-.8A3.61,3.61,0,0,0,321,56a3.65,3.65,0,0,0-1.46.28,3.33,3.33,0,0,0-1.13.8,3.77,3.77,0,0,0-.74,1.23,5.08,5.08,0,0,0,0,3.21,3.72,3.72,0,0,0,.74,1.24,3.33,3.33,0,0,0,1.13.8,3.65,3.65,0,0,0,1.46.28,3.61,3.61,0,0,0,1.45-.28,3.27,3.27,0,0,0,1.14-.8,3.58,3.58,0,0,0,.75-1.24A4.81,4.81,0,0,0,324.64,59.87Zm-2.48,2.59c-.19-.39-.38-.75-.56-1.07a8.53,8.53,0,0,0-.53-.8h-.76v1.87h-1.17v-5.1a5.24,5.24,0,0,1,.85-.15,7.24,7.24,0,0,1,.74-.05,2.93,2.93,0,0,1,1.75.44,1.5,1.5,0,0,1,.6,1.31,1.43,1.43,0,0,1-.9,1.38c.19.27.39.59.61.94a10,10,0,0,1,.62,1.23Zm-1.85-2.82h.39a2.09,2.09,0,0,0,.87-.15.69.69,0,0,0,0-1.15,1.68,1.68,0,0,0-.76-.16h-.25l-.27,0Z" transform="translate(0)" style="fill: #212932"/>
</svg>
